STARTFONT 2.1
COMMENT  
COMMENT  
COMMENT  
COMMENT  WARNING:  This bdf file was generated from a font server using
COMMENT  fstobdf.  The resulting font is subject to the same copyright,
COMMENT  license, and trademark restrictions as the original font.  The
COMMENT  authors and distributors of fstobdf disclaim all liability for
COMMENT  misuse of the program or its output.
COMMENT  
FONT -star division-starbats-medium-r-normal--18-170-75-75-p-0-stardivision-fontspecific
SIZE 17 75 75
FONTBOUNDINGBOX 20 21 -2 -5
STARTPROPERTIES 60
FONT "-star division-starbats-medium-r-normal--18-170-75-75-p-0-stardivision-fontspecific"
FONT_TYPE "TrueType"
TECHNOLOGY "TrueType"
FOUNDRY ""
FAMILY_NAME "starbats"
WEIGHT_NAME "medium"
SLANT "r"
SETWIDTH_NAME "normal"
ADD_STYLE_NAME ""
PIXEL_SIZE 17
POINT_SIZE 170
RESOLUTION_X 75
RESOLUTION_Y 75
SPACING "p"
AVERAGE_WIDTH 100
CHARSET_REGISTRY "stardivision"
CHARSET_ENCODING "fontspecific"
AVG_LOWERCASE_WIDTH 15
RAW_AVG_LOWERCASE_WIDTH 831
SUBSCRIPT_X 0
SUBSCRIPT_Y 3
SUBSCRIPT_SIZE 3
RAW_SUBSCRIPT_X 0
RAW_SUBSCRIPT_Y 211
RAW_SUBSCRIPT_SIZE 180
SUPERSCRIPT_X 0
SUPERSCRIPT_Y 10
SUPERSCRIPT_SIZE 3
RAW_SUPERSCRIPT_X 0
RAW_SUPERSCRIPT_Y 539
RAW_SUPERSCRIPT_SIZE 180
STRIKEOUT_ASCENT 5
STRIKEOUT_DESCENT -4
RAW_STRIKEOUT_ASCENT 308
RAW_STRIKEOUT_DESCENT -258
RELATIVE_SETWIDTH 50
RELATIVE_WEIGHT 40
_GALLIUM_PANOSE "2 11 5 0 0 0 0 0 0 0"
UNDERLINE_POSITION 0
UNDERLINE_THICKNESS 0
RAW_UNDERLINE_POSITION 0
RAW_UNDERLINE_THICKNESS 0
ITALIC_ANGLE 0
NORM_SPACE 5
RAW_NORM_SPACE 280
CAP_HEIGHT 10
RAW_CAP_HEIGHT 557
X_HEIGHT 9
RAW_X_HEIGHT 520
RAW_PIXEL_SIZE 1000
RAW_POINT_SIZE 9636
FONT_ASCENT 16
FONT_DESCENT 4
RAW_ASCENT 898
RAW_DESCENT 212
RAW_AVERAGE_WIDTH 6513
COPYRIGHT ""
FACE_NAME "StarB TT"
NOTICE ""
DEFAULT_CHAR 0
ENDPROPERTIES
CHARS 224
STARTCHAR space
ENCODING 32
SWIDTH 282 0
DWIDTH 5 0
BBX 0 0 0 0
ATTRIBUTES 0117
BITMAP
ENDCHAR
STARTCHAR exclam
ENCODING 33
SWIDTH 847 0
DWIDTH 15 0
BBX 14 13 0 0
ATTRIBUTES 034c
BITMAP
0fc0
1020
2010
4008
8cc4
8444
8004
9024
9024
4cc8
2790
1860
0780
ENDCHAR
STARTCHAR quotedbl
ENCODING 34
SWIDTH 734 0
DWIDTH 13 0
BBX 10 10 2 1
ATTRIBUTES 02ec
BITMAP
3f00
7f80
ffc0
ffc0
ffc0
ffc0
ffc0
7f80
3f00
0c00
ENDCHAR
STARTCHAR numbersign
ENCODING 35
SWIDTH 960 0
DWIDTH 17 0
BBX 14 13 1 0
ATTRIBUTES 03b8
BITMAP
0f00
30e0
4030
4038
8018
801c
801c
801c
401c
4038
2078
1ff0
03c0
ENDCHAR
STARTCHAR dollar
ENCODING 36
SWIDTH 734 0
DWIDTH 13 0
BBX 10 10 2 1
ATTRIBUTES 02ec
BITMAP
ffc0
ffc0
ffc0
ffc0
ffc0
ffc0
ffc0
ffc0
ffc0
ffc0
ENDCHAR
STARTCHAR percent
ENCODING 37
SWIDTH 903 0
DWIDTH 16 0
BBX 13 13 1 0
ATTRIBUTES 037c
BITMAP
fff8
fff8
c018
c018
c018
c018
c018
c018
c018
c018
c018
fff8
fff8
ENDCHAR
STARTCHAR ampersand
ENCODING 38
SWIDTH 903 0
DWIDTH 16 0
BBX 13 13 1 0
ATTRIBUTES 037c
BITMAP
fff8
fff8
fff8
e038
e038
e038
e038
e038
e038
e038
fff8
fff8
fff8
ENDCHAR
STARTCHAR apostrophe
ENCODING 39
SWIDTH 903 0
DWIDTH 16 0
BBX 13 13 1 0
ATTRIBUTES 037c
BITMAP
fff0
8038
8038
8038
8038
8038
8038
8038
8038
8038
fff8
fff8
7ff8
ENDCHAR
STARTCHAR parenleft
ENCODING 40
SWIDTH 903 0
DWIDTH 16 0
BBX 13 13 1 0
ATTRIBUTES 037c
BITMAP
7ff8
fff8
fff8
8038
8038
8038
8038
8038
8038
8038
8038
8038
fff0
ENDCHAR
STARTCHAR parenright
ENCODING 41
SWIDTH 451 0
DWIDTH 8 0
BBX 6 7 1 3
ATTRIBUTES 01cb
BITMAP
10
30
78
fc
78
30
30
ENDCHAR
STARTCHAR asterisk
ENCODING 42
SWIDTH 734 0
DWIDTH 13 0
BBX 10 15 2 -1
ATTRIBUTES 02ec
BITMAP
0400
0c00
0c00
1e00
3f00
7f80
7f80
ffc0
7f80
7f80
3f00
1e00
1e00
0c00
0400
ENDCHAR
STARTCHAR plus
ENCODING 43
SWIDTH 960 0
DWIDTH 17 0
BBX 15 15 1 -1
ATTRIBUTES 03db
BITMAP
0100
0380
07c0
0fe0
1ff0
3ff8
7ffc
fffe
7ffc
3ff8
1ff0
0fe0
07c0
0380
0100
ENDCHAR
STARTCHAR comma
ENCODING 44
SWIDTH 903 0
DWIDTH 16 0
BBX 13 13 1 0
ATTRIBUTES 037c
BITMAP
0200
0700
0f80
0700
2220
7070
f8f8
7070
2220
0700
0f80
0700
0200
ENDCHAR
STARTCHAR minus
ENCODING 45
SWIDTH 564 0
DWIDTH 10 0
BBX 8 7 1 3
ATTRIBUTES 0244
BITMAP
18
3c
7e
ff
7e
3c
18
ENDCHAR
STARTCHAR period
ENCODING 46
SWIDTH 960 0
DWIDTH 17 0
BBX 14 13 1 0
ATTRIBUTES 03b8
BITMAP
03c0
1ff0
3078
4038
401c
801c
801c
801c
8018
4018
4030
30e0
0f00
ENDCHAR
STARTCHAR slash
ENCODING 47
SWIDTH 790 0
DWIDTH 14 0
BBX 11 13 2 0
ATTRIBUTES 031b
BITMAP
8000
c000
7000
2c00
2200
1180
1060
1fc0
1f00
3c00
7000
6000
8000
ENDCHAR
STARTCHAR 0
ENCODING 48
SWIDTH 960 0
DWIDTH 17 0
BBX 15 13 1 0
ATTRIBUTES 03d3
BITMAP
0380
01c0
00e0
0070
0038
001c
fffe
000c
0018
0070
00e0
01c0
0380
ENDCHAR
STARTCHAR 1
ENCODING 49
SWIDTH 1072 0
DWIDTH 19 0
BBX 16 13 1 0
ATTRIBUTES 042b
BITMAP
07c0
03e0
01f0
00f8
007c
fffe
ffff
fffe
007c
00f8
01f0
03e0
07c0
ENDCHAR
STARTCHAR 2
ENCODING 50
SWIDTH 790 0
DWIDTH 14 0
BBX 12 12 1 2
ATTRIBUTES 0314
BITMAP
0010
0020
0040
00c0
0180
0300
2600
e400
6c00
3800
3000
1000
ENDCHAR
STARTCHAR 3
ENCODING 51
SWIDTH 903 0
DWIDTH 16 0
BBX 13 12 1 0
ATTRIBUTES 037c
BITMAP
fff8
8008
8408
8ce8
8fe8
8788
8308
8fc8
bce8
9848
8008
fff8
ENDCHAR
STARTCHAR 4
ENCODING 52
SWIDTH 903 0
DWIDTH 16 0
BBX 14 13 1 0
ATTRIBUTES 037c
BITMAP
fff8
8038
8028
8048
8088
9188
bb08
9b08
8e08
8c08
8408
8008
fff8
ENDCHAR
STARTCHAR 5
ENCODING 53
SWIDTH 903 0
DWIDTH 16 0
BBX 13 13 2 0
ATTRIBUTES 037c
BITMAP
0f80
3fc0
7fe0
7f70
ff38
0018
0008
0008
0018
ff30
7f60
3fc0
0f80
ENDCHAR
STARTCHAR 6
ENCODING 54
SWIDTH 790 0
DWIDTH 14 0
BBX 12 6 1 2
ATTRIBUTES 0303
BITMAP
0780
bff0
ff30
ff80
ff00
bf00
ENDCHAR
STARTCHAR 7
ENCODING 55
SWIDTH 677 0
DWIDTH 12 0
BBX 12 9 0 0
ATTRIBUTES 029f
BITMAP
0200
0e00
1600
2d40
3ca0
5c90
6890
7fe0
c000
ENDCHAR
STARTCHAR 8
ENCODING 56
SWIDTH 734 0
DWIDTH 13 0
BBX 12 8 0 1
ATTRIBUTES 02e4
BITMAP
7000
7c00
da00
e580
53c0
6c60
1a90
07f0
ENDCHAR
STARTCHAR 9
ENCODING 57
SWIDTH 564 0
DWIDTH 10 0
BBX 10 9 0 0
ATTRIBUTES 0247
BITMAP
00c0
0180
0300
0600
0c00
d800
d800
f000
6000
ENDCHAR
STARTCHAR colon
ENCODING 58
SWIDTH 677 0
DWIDTH 12 0
BBX 11 9 0 0
ATTRIBUTES 028f
BITMAP
0060
00e0
41c0
e380
e700
fe00
fc00
f800
6000
ENDCHAR
STARTCHAR semicolon
ENCODING 59
SWIDTH 734 0
DWIDTH 13 0
BBX 12 12 0 1
ATTRIBUTES 02d8
BITMAP
0f00
3fc0
7fe0
7fe0
fff0
fff0
fff0
fff0
7fe0
7fe0
1f80
0600
ENDCHAR
STARTCHAR less
ENCODING 60
SWIDTH 621 0
DWIDTH 11 0
BBX 11 9 0 0
ATTRIBUTES 027c
BITMAP
3f00
4080
4040
8060
8060
8060
4040
40c0
3f00
ENDCHAR
STARTCHAR equal
ENCODING 61
SWIDTH 564 0
DWIDTH 10 0
BBX 10 9 0 0
ATTRIBUTES 0230
BITMAP
ffc0
ffc0
ffc0
ffc0
ffc0
ffc0
ffc0
ffc0
ffc0
ENDCHAR
STARTCHAR greater
ENCODING 62
SWIDTH 564 0
DWIDTH 10 0
BBX 10 9 0 0
ATTRIBUTES 0227
BITMAP
ff80
80c0
80c0
80c0
80c0
80c0
80c0
ffc0
7fc0
ENDCHAR
STARTCHAR question
ENCODING 63
SWIDTH 564 0
DWIDTH 10 0
BBX 10 9 0 0
ATTRIBUTES 0230
BITMAP
ffc0
80c0
80c0
80c0
80c0
80c0
80c0
80c0
ff00
ENDCHAR
STARTCHAR at
ENCODING 64
SWIDTH 564 0
DWIDTH 10 0
BBX 10 9 0 0
ATTRIBUTES 0227
BITMAP
ffc0
80c0
80c0
80c0
80c0
80c0
80c0
80c0
ff80
ENDCHAR
STARTCHAR A
ENCODING 65
SWIDTH 734 0
DWIDTH 13 0
BBX 10 10 2 2
ATTRIBUTES 02dc
BITMAP
0c00
1e00
3f00
7f80
ffc0
7f80
3f00
1e00
0c00
0400
ENDCHAR
STARTCHAR B
ENCODING 66
SWIDTH 564 0
DWIDTH 10 0
BBX 10 9 0 0
ATTRIBUTES 0240
BITMAP
0c00
1e00
2d00
7380
f3c0
6d80
1e00
0c00
0400
ENDCHAR
STARTCHAR C
ENCODING 67
SWIDTH 395 0
DWIDTH 7 0
BBX 8 9 -1 0
ATTRIBUTES 01a7
BITMAP
10
18
3c
7e
ff
7e
3c
18
08
ENDCHAR
STARTCHAR D
ENCODING 68
SWIDTH 564 0
DWIDTH 10 0
BBX 10 9 0 0
ATTRIBUTES 0237
BITMAP
0c00
0c00
0c00
4480
ffc0
4480
0c00
0c00
0c00
ENDCHAR
STARTCHAR E
ENCODING 69
SWIDTH 564 0
DWIDTH 10 0
BBX 10 9 0 0
ATTRIBUTES 0240
BITMAP
0c00
0c00
0c00
e5c0
ffc0
4480
0c00
0c00
0c00
ENDCHAR
STARTCHAR F
ENCODING 70
SWIDTH 564 0
DWIDTH 10 0
BBX 10 9 0 0
ATTRIBUTES 0237
BITMAP
0c00
1e00
2c80
f7c0
ffc0
edc0
1e00
1e00
0c00
ENDCHAR
STARTCHAR G
ENCODING 71
SWIDTH 564 0
DWIDTH 10 0
BBX 10 9 0 0
ATTRIBUTES 0240
BITMAP
0c00
1e00
2c00
65c0
ffc0
6500
0e00
1e00
0c00
ENDCHAR
STARTCHAR H
ENCODING 72
SWIDTH 564 0
DWIDTH 10 0
BBX 10 9 0 0
ATTRIBUTES 021f
BITMAP
0400
2500
1600
0c00
fbc0
1e00
2500
4480
0400
ENDCHAR
STARTCHAR I
ENCODING 73
SWIDTH 564 0
DWIDTH 10 0
BBX 10 9 0 0
ATTRIBUTES 0240
BITMAP
0400
2500
1600
0c00
7f80
1e00
2500
2500
0400
ENDCHAR
STARTCHAR J
ENCODING 74
SWIDTH 564 0
DWIDTH 10 0
BBX 10 9 0 0
ATTRIBUTES 0240
BITMAP
0c00
2f80
3500
3f00
cf80
3b00
3f00
2c80
0400
ENDCHAR
STARTCHAR K
ENCODING 75
SWIDTH 508 0
DWIDTH 9 0
BBX 9 9 0 0
ATTRIBUTES 01fb
BITMAP
0800
0800
4b00
3e00
1c00
7e00
8980
0800
0800
ENDCHAR
STARTCHAR L
ENCODING 76
SWIDTH 564 0
DWIDTH 10 0
BBX 10 9 0 0
ATTRIBUTES 0237
BITMAP
1200
1600
dcc0
3f00
3f00
7f80
1e00
1200
1200
ENDCHAR
STARTCHAR M
ENCODING 77
SWIDTH 564 0
DWIDTH 10 0
BBX 10 9 0 0
ATTRIBUTES 0240
BITMAP
1200
1e00
7f80
3f00
3f00
7f80
1e00
1200
1200
ENDCHAR
STARTCHAR N
ENCODING 78
SWIDTH 621 0
DWIDTH 11 0
BBX 11 10 -1 0
ATTRIBUTES 025c
BITMAP
0400
1500
1f00
3f80
1f00
7fc0
3f80
5f40
1500
1500
ENDCHAR
STARTCHAR O
ENCODING 79
SWIDTH 451 0
DWIDTH 8 0
BBX 9 10 -1 -1
ATTRIBUTES 01df
BITMAP
1180
1300
1e00
1c00
1c00
1e00
3600
6200
e000
c000
ENDCHAR
STARTCHAR P
ENCODING 80
SWIDTH 508 0
DWIDTH 9 0
BBX 9 9 0 0
ATTRIBUTES 0204
BITMAP
6100
7380
3f00
3e00
3c00
7e00
ff00
e700
4200
ENDCHAR
STARTCHAR Q
ENCODING 81
SWIDTH 564 0
DWIDTH 10 0
BBX 10 10 0 0
ATTRIBUTES 0247
BITMAP
0e00
0900
0d00
3500
c4c0
bf40
c4c0
3500
0d00
0e00
ENDCHAR
STARTCHAR R
ENCODING 82
SWIDTH 564 0
DWIDTH 10 0
BBX 10 9 0 0
ATTRIBUTES 0247
BITMAP
1e00
1e00
1e00
ffc0
ffc0
ffc0
1e00
1e00
1e00
ENDCHAR
STARTCHAR S
ENCODING 83
SWIDTH 564 0
DWIDTH 10 0
BBX 10 9 0 0
ATTRIBUTES 0247
BITMAP
0c00
0c00
0c00
0fc0
ffc0
0c00
0c00
0c00
1c00
ENDCHAR
STARTCHAR T
ENCODING 84
SWIDTH 564 0
DWIDTH 10 0
BBX 10 9 0 0
ATTRIBUTES 0237
BITMAP
0e00
0e00
0e00
f1c0
f1c0
f1c0
0e00
0e00
0e00
ENDCHAR
STARTCHAR U
ENCODING 85
SWIDTH 621 0
DWIDTH 11 0
BBX 11 9 0 0
ATTRIBUTES 0273
BITMAP
0400
0400
0c00
ffe0
3180
1100
1f00
1100
2080
ENDCHAR
STARTCHAR V
ENCODING 86
SWIDTH 621 0
DWIDTH 11 0
BBX 11 9 0 0
ATTRIBUTES 026c
BITMAP
0c00
0a00
0a00
ffe0
2e80
1f00
1480
3a80
3180
ENDCHAR
STARTCHAR W
ENCODING 87
SWIDTH 564 0
DWIDTH 10 0
BBX 11 9 -1 0
ATTRIBUTES 024f
BITMAP
0c00
0e00
3f00
cee0
7fc0
2e80
2a80
3f80
3180
ENDCHAR
STARTCHAR X
ENCODING 88
SWIDTH 564 0
DWIDTH 10 0
BBX 11 9 -1 0
ATTRIBUTES 024f
BITMAP
0400
0a00
1f00
e4e0
7ec0
1f00
1d80
3b80
2080
ENDCHAR
STARTCHAR Y
ENCODING 89
SWIDTH 621 0
DWIDTH 11 0
BBX 11 9 0 0
ATTRIBUTES 025f
BITMAP
0600
0600
0a00
fbe0
2f80
1b00
1e80
1980
2080
ENDCHAR
STARTCHAR Z
ENCODING 90
SWIDTH 677 0
DWIDTH 12 0
BBX 12 10 0 0
ATTRIBUTES 02a8
BITMAP
0600
0a00
0b00
1b00
60e0
20c0
2180
2480
3fc0
38c0
ENDCHAR
STARTCHAR bracketleft
ENCODING 91
SWIDTH 282 0
DWIDTH 5 0
BBX 4 17 0 -4
ATTRIBUTES 0117
BITMAP
f0
f0
c0
c0
c0
c0
c0
c0
c0
c0
c0
c0
c0
c0
c0
f0
f0
ENDCHAR
STARTCHAR backslash
ENCODING 92
SWIDTH 903 0
DWIDTH 16 0
BBX 13 13 2 0
ATTRIBUTES 037c
BITMAP
1f80
3fc0
7fe0
f9f0
f2f0
e670
e670
e670
e670
f2f0
79e0
3fc0
1f80
ENDCHAR
STARTCHAR bracketright
ENCODING 93
SWIDTH 903 0
DWIDTH 16 0
BBX 13 13 2 0
ATTRIBUTES 037c
BITMAP
0fc0
1fe0
3ff0
78f8
7cf8
7cf8
7cf8
7cf8
7cf8
7cf8
3cf0
1fe0
0fc0
ENDCHAR
STARTCHAR asciicircum
ENCODING 94
SWIDTH 903 0
DWIDTH 16 0
BBX 12 13 2 0
ATTRIBUTES 037c
BITMAP
0fc0
1fe0
3ff0
7870
7f30
7f30
7e70
7cf0
79f0
7030
3ff0
1fe0
0fc0
ENDCHAR
STARTCHAR underscore
ENCODING 95
SWIDTH 903 0
DWIDTH 16 0
BBX 12 13 2 0
ATTRIBUTES 037c
BITMAP
0fc0
1fe0
3ff0
7870
7f30
7f30
7cf0
7f30
7f30
7f30
3870
1fe0
0fc0
ENDCHAR
STARTCHAR grave
ENCODING 96
SWIDTH 903 0
DWIDTH 16 0
BBX 13 13 2 0
ATTRIBUTES 037c
BITMAP
1f80
3fc0
7fe0
fcf0
fcf0
f4f0
ecf0
c070
fcf0
fcf0
7ce0
3fc0
1f80
ENDCHAR
STARTCHAR a
ENCODING 97
SWIDTH 903 0
DWIDTH 16 0
BBX 13 13 2 0
ATTRIBUTES 037c
BITMAP
0f00
3fc0
7fe0
6070
e7f0
e7f0
e1f0
fc70
fe70
fe70
61e0
3fc0
1f80
ENDCHAR
STARTCHAR b
ENCODING 98
SWIDTH 903 0
DWIDTH 16 0
BBX 13 13 2 0
ATTRIBUTES 037c
BITMAP
1f80
3fc0
7fe0
f870
f7f0
e4f0
e670
e670
e670
f6f0
71e0
3fc0
1f80
ENDCHAR
STARTCHAR c
ENCODING 99
SWIDTH 903 0
DWIDTH 16 0
BBX 13 13 1 0
ATTRIBUTES 037c
BITMAP
0f80
1fe0
3ff0
7030
ff78
fe78
fef8
fdf8
f9f8
79f0
73f0
1fe0
0f80
ENDCHAR
STARTCHAR d
ENCODING 100
SWIDTH 903 0
DWIDTH 16 0
BBX 12 13 2 0
ATTRIBUTES 037c
BITMAP
0fc0
1fe0
3ff0
7870
7330
7130
78f0
7a70
7330
7330
3870
1fe0
0fc0
ENDCHAR
STARTCHAR e
ENCODING 101
SWIDTH 903 0
DWIDTH 16 0
BBX 12 13 2 0
ATTRIBUTES 037c
BITMAP
0fc0
1fe0
3ff0
7870
7370
7330
7330
7930
7f30
7e70
38f0
1fe0
0fc0
ENDCHAR
STARTCHAR f
ENCODING 102
SWIDTH 903 0
DWIDTH 16 0
BBX 13 13 2 0
ATTRIBUTES 037c
BITMAP
07c0
1fe0
3ff0
4738
6698
64c8
64c8
64c8
64c8
6698
2730
1fe0
07c0
ENDCHAR
STARTCHAR g
ENCODING 103
SWIDTH 903 0
DWIDTH 16 0
BBX 14 13 1 0
ATTRIBUTES 037c
BITMAP
0780
1860
2310
4488
4444
8844
8844
8844
4444
4488
2310
1860
0fc0
ENDCHAR
STARTCHAR h
ENCODING 104
SWIDTH 903 0
DWIDTH 16 0
BBX 13 13 1 0
ATTRIBUTES 037c
BITMAP
0f80
1060
2030
4210
8208
8208
8208
8208
8208
4210
6230
1060
0f80
ENDCHAR
STARTCHAR i
ENCODING 105
SWIDTH 903 0
DWIDTH 16 0
BBX 13 13 1 0
ATTRIBUTES 037c
BITMAP
0f00
10c0
2720
4090
8088
8088
8108
8208
8408
4c10
6f90
3060
0f80
ENDCHAR
STARTCHAR j
ENCODING 106
SWIDTH 903 0
DWIDTH 16 0
BBX 13 13 1 0
ATTRIBUTES 037c
BITMAP
0f00
10c0
2320
4710
4188
8088
8108
8088
4088
4090
2720
1040
0f80
ENDCHAR
STARTCHAR k
ENCODING 107
SWIDTH 903 0
DWIDTH 16 0
BBX 14 13 1 0
ATTRIBUTES 037c
BITMAP
0780
1860
2110
4308
4304
8504
8504
8f84
4104
4108
2110
1860
0fc0
ENDCHAR
STARTCHAR l
ENCODING 108
SWIDTH 903 0
DWIDTH 16 0
BBX 14 13 1 0
ATTRIBUTES 037c
BITMAP
0780
1860
2790
4788
4404
8404
8304
8084
4084
4188
2710
1860
0fc0
ENDCHAR
STARTCHAR m
ENCODING 109
SWIDTH 903 0
DWIDTH 16 0
BBX 13 13 1 0
ATTRIBUTES 037c
BITMAP
0f00
10c0
2320
4790
4408
8808
8f88
8888
4848
4490
2720
1040
0f80
ENDCHAR
STARTCHAR n
ENCODING 110
SWIDTH 903 0
DWIDTH 16 0
BBX 13 13 1 0
ATTRIBUTES 037c
BITMAP
0f00
10c0
2020
4f90
8088
8108
8108
8208
8208
4410
6430
3060
0f80
ENDCHAR
STARTCHAR o
ENCODING 111
SWIDTH 903 0
DWIDTH 16 0
BBX 13 13 1 0
ATTRIBUTES 037c
BITMAP
0f00
10c0
2720
4490
4488
8508
8708
8588
4488
4490
2720
1040
0f80
ENDCHAR
STARTCHAR p
ENCODING 112
SWIDTH 903 0
DWIDTH 16 0
BBX 14 13 1 0
ATTRIBUTES 037c
BITMAP
0780
1860
2310
4788
48c4
8844
8444
87c4
4044
4088
2f10
1860
0fc0
ENDCHAR
STARTCHAR q
ENCODING 113
SWIDTH 903 0
DWIDTH 16 0
BBX 14 13 1 0
ATTRIBUTES 037c
BITMAP
0780
1860
39d0
4948
4a24
8a24
8a24
8a24
4a24
4948
29d0
1860
0fc0
ENDCHAR
STARTCHAR r
ENCODING 114
SWIDTH 1016 0
DWIDTH 18 0
BBX 16 14 1 0
ATTRIBUTES 0410
BITMAP
fffe
c007
c007
cfe7
c007
c007
c007
c007
c007
c007
c007
c007
ffff
7fff
ENDCHAR
STARTCHAR s
ENCODING 115
SWIDTH 1072 0
DWIDTH 19 0
BBX 18 15 0 1
ATTRIBUTES 042f
BITMAP
1ff000
202000
e03fc0
e03840
e03fc0
e03fc0
ffffc0
e6ffc0
e6ffc0
e6ffc0
ffffc0
e6ffc0
e6ffc0
ffffc0
ffffc0
ENDCHAR
STARTCHAR t
ENCODING 116
SWIDTH 1072 0
DWIDTH 19 0
BBX 17 13 1 1
ATTRIBUTES 041a
BITMAP
1ffc00
7fff00
fe7f80
fa1f80
f3e780
f7f780
0e3800
0c1800
0c1800
1e3c00
1ffc00
1ffc00
1ffc00
ENDCHAR
STARTCHAR u
ENCODING 117
SWIDTH 564 0
DWIDTH 10 0
BBX 9 9 0 0
ATTRIBUTES 022c
BITMAP
c180
c180
c180
c180
c180
c180
4180
6380
3d80
ENDCHAR
STARTCHAR v
ENCODING 118
SWIDTH 508 0
DWIDTH 9 0
BBX 9 9 0 0
ATTRIBUTES 01f4
BITMAP
c180
4100
6300
6300
3200
3600
1400
1c00
0c00
ENDCHAR
STARTCHAR w
ENCODING 119
SWIDTH 734 0
DWIDTH 13 0
BBX 13 9 0 0
ATTRIBUTES 02d4
BITMAP
c318
c718
4510
6530
6db0
2da0
38e0
38e0
18c0
ENDCHAR
STARTCHAR x
ENCODING 120
SWIDTH 508 0
DWIDTH 9 0
BBX 9 9 0 0
ATTRIBUTES 01f4
BITMAP
6300
6300
3600
1c00
1c00
1400
3600
6300
c180
ENDCHAR
STARTCHAR y
ENCODING 121
SWIDTH 508 0
DWIDTH 9 0
BBX 9 13 0 -4
ATTRIBUTES 01f4
BITMAP
c180
4100
6300
6300
3600
3600
1400
1c00
0c00
0800
1800
7000
6000
ENDCHAR
STARTCHAR z
ENCODING 122
SWIDTH 508 0
DWIDTH 9 0
BBX 9 9 -1 0
ATTRIBUTES 01f4
BITMAP
ff80
0300
0600
0c00
1800
3000
6000
c000
ff80
ENDCHAR
STARTCHAR braceleft
ENCODING 123
SWIDTH 338 0
DWIDTH 6 0
BBX 5 17 0 -4
ATTRIBUTES 014f
BITMAP
18
38
20
20
20
20
20
60
c0
60
20
20
20
20
20
38
18
ENDCHAR
STARTCHAR bar
ENCODING 124
SWIDTH 282 0
DWIDTH 5 0
BBX 2 17 1 -4
ATTRIBUTES 0103
BITMAP
c0
c0
c0
c0
c0
c0
c0
c0
c0
c0
c0
c0
c0
c0
c0
c0
c0
ENDCHAR
STARTCHAR braceright
ENCODING 125
SWIDTH 338 0
DWIDTH 6 0
BBX 5 17 0 -4
ATTRIBUTES 014f
BITMAP
c0
e0
20
20
20
20
20
10
18
30
20
20
20
20
20
e0
c0
ENDCHAR
STARTCHAR asciitilde
ENCODING 126
SWIDTH 564 0
DWIDTH 10 0
BBX 9 3 0 5
ATTRIBUTES 0247
BITMAP
2080
fd80
8f80
ENDCHAR
STARTCHAR C000177
ENCODING 127
SWIDTH 508 0
DWIDTH 9 0
BBX 9 9 0 0
ATTRIBUTES 01f7
BITMAP
ff80
8080
8080
8080
8080
8080
8080
8080
ff80
ENDCHAR
STARTCHAR C000200
ENCODING 128
SWIDTH 734 0
DWIDTH 13 0
BBX 9 11 2 0
ATTRIBUTES 02ee
BITMAP
ff80
8080
8080
8080
8080
8080
8080
8080
8080
8080
ff80
ENDCHAR
STARTCHAR C000201
ENCODING 129
SWIDTH 734 0
DWIDTH 13 0
BBX 9 11 2 0
ATTRIBUTES 02ee
BITMAP
ff80
8080
8080
8080
8080
8080
8080
8080
8080
8080
ff80
ENDCHAR
STARTCHAR C000202
ENCODING 130
SWIDTH 734 0
DWIDTH 13 0
BBX 9 11 2 0
ATTRIBUTES 02ee
BITMAP
ff80
8080
8080
8080
8080
8080
8080
8080
8080
8080
ff80
ENDCHAR
STARTCHAR C000203
ENCODING 131
SWIDTH 734 0
DWIDTH 13 0
BBX 9 11 2 0
ATTRIBUTES 02ee
BITMAP
ff80
8080
8080
8080
8080
8080
8080
8080
8080
8080
ff80
ENDCHAR
STARTCHAR C000204
ENCODING 132
SWIDTH 734 0
DWIDTH 13 0
BBX 9 11 2 0
ATTRIBUTES 02ee
BITMAP
ff80
8080
8080
8080
8080
8080
8080
8080
8080
8080
ff80
ENDCHAR
STARTCHAR C000205
ENCODING 133
SWIDTH 734 0
DWIDTH 13 0
BBX 9 11 2 0
ATTRIBUTES 02ee
BITMAP
ff80
8080
8080
8080
8080
8080
8080
8080
8080
8080
ff80
ENDCHAR
STARTCHAR C000206
ENCODING 134
SWIDTH 734 0
DWIDTH 13 0
BBX 9 11 2 0
ATTRIBUTES 02ee
BITMAP
ff80
8080
8080
8080
8080
8080
8080
8080
8080
8080
ff80
ENDCHAR
STARTCHAR C000207
ENCODING 135
SWIDTH 734 0
DWIDTH 13 0
BBX 9 11 2 0
ATTRIBUTES 02ee
BITMAP
ff80
8080
8080
8080
8080
8080
8080
8080
8080
8080
ff80
ENDCHAR
STARTCHAR C000210
ENCODING 136
SWIDTH 734 0
DWIDTH 13 0
BBX 9 11 2 0
ATTRIBUTES 02ee
BITMAP
ff80
8080
8080
8080
8080
8080
8080
8080
8080
8080
ff80
ENDCHAR
STARTCHAR C000211
ENCODING 137
SWIDTH 734 0
DWIDTH 13 0
BBX 9 11 2 0
ATTRIBUTES 02ee
BITMAP
ff80
8080
8080
8080
8080
8080
8080
8080
8080
8080
ff80
ENDCHAR
STARTCHAR C000212
ENCODING 138
SWIDTH 734 0
DWIDTH 13 0
BBX 9 11 2 0
ATTRIBUTES 02ee
BITMAP
ff80
8080
8080
8080
8080
8080
8080
8080
8080
8080
ff80
ENDCHAR
STARTCHAR C000213
ENCODING 139
SWIDTH 734 0
DWIDTH 13 0
BBX 9 11 2 0
ATTRIBUTES 02ee
BITMAP
ff80
8080
8080
8080
8080
8080
8080
8080
8080
8080
ff80
ENDCHAR
STARTCHAR C000214
ENCODING 140
SWIDTH 734 0
DWIDTH 13 0
BBX 9 11 2 0
ATTRIBUTES 02ee
BITMAP
ff80
8080
8080
8080
8080
8080
8080
8080
8080
8080
ff80
ENDCHAR
STARTCHAR C000215
ENCODING 141
SWIDTH 734 0
DWIDTH 13 0
BBX 9 11 2 0
ATTRIBUTES 02ee
BITMAP
ff80
8080
8080
8080
8080
8080
8080
8080
8080
8080
ff80
ENDCHAR
STARTCHAR C000216
ENCODING 142
SWIDTH 734 0
DWIDTH 13 0
BBX 9 11 2 0
ATTRIBUTES 02ee
BITMAP
ff80
8080
8080
8080
8080
8080
8080
8080
8080
8080
ff80
ENDCHAR
STARTCHAR C000217
ENCODING 143
SWIDTH 734 0
DWIDTH 13 0
BBX 9 11 2 0
ATTRIBUTES 02ee
BITMAP
ff80
8080
8080
8080
8080
8080
8080
8080
8080
8080
ff80
ENDCHAR
STARTCHAR C000220
ENCODING 144
SWIDTH 734 0
DWIDTH 13 0
BBX 9 11 2 0
ATTRIBUTES 02ee
BITMAP
ff80
8080
8080
8080
8080
8080
8080
8080
8080
8080
ff80
ENDCHAR
STARTCHAR C000221
ENCODING 145
SWIDTH 734 0
DWIDTH 13 0
BBX 9 11 2 0
ATTRIBUTES 02ee
BITMAP
ff80
8080
8080
8080
8080
8080
8080
8080
8080
8080
ff80
ENDCHAR
STARTCHAR C000222
ENCODING 146
SWIDTH 734 0
DWIDTH 13 0
BBX 9 11 2 0
ATTRIBUTES 02ee
BITMAP
ff80
8080
8080
8080
8080
8080
8080
8080
8080
8080
ff80
ENDCHAR
STARTCHAR C000223
ENCODING 147
SWIDTH 734 0
DWIDTH 13 0
BBX 9 11 2 0
ATTRIBUTES 02ee
BITMAP
ff80
8080
8080
8080
8080
8080
8080
8080
8080
8080
ff80
ENDCHAR
STARTCHAR C000224
ENCODING 148
SWIDTH 734 0
DWIDTH 13 0
BBX 9 11 2 0
ATTRIBUTES 02ee
BITMAP
ff80
8080
8080
8080
8080
8080
8080
8080
8080
8080
ff80
ENDCHAR
STARTCHAR C000225
ENCODING 149
SWIDTH 734 0
DWIDTH 13 0
BBX 9 11 2 0
ATTRIBUTES 02ee
BITMAP
ff80
8080
8080
8080
8080
8080
8080
8080
8080
8080
ff80
ENDCHAR
STARTCHAR C000226
ENCODING 150
SWIDTH 734 0
DWIDTH 13 0
BBX 9 11 2 0
ATTRIBUTES 02ee
BITMAP
ff80
8080
8080
8080
8080
8080
8080
8080
8080
8080
ff80
ENDCHAR
STARTCHAR C000227
ENCODING 151
SWIDTH 734 0
DWIDTH 13 0
BBX 9 11 2 0
ATTRIBUTES 02ee
BITMAP
ff80
8080
8080
8080
8080
8080
8080
8080
8080
8080
ff80
ENDCHAR
STARTCHAR C000230
ENCODING 152
SWIDTH 734 0
DWIDTH 13 0
BBX 9 11 2 0
ATTRIBUTES 02ee
BITMAP
ff80
8080
8080
8080
8080
8080
8080
8080
8080
8080
ff80
ENDCHAR
STARTCHAR C000231
ENCODING 153
SWIDTH 734 0
DWIDTH 13 0
BBX 9 11 2 0
ATTRIBUTES 02ee
BITMAP
ff80
8080
8080
8080
8080
8080
8080
8080
8080
8080
ff80
ENDCHAR
STARTCHAR C000232
ENCODING 154
SWIDTH 734 0
DWIDTH 13 0
BBX 9 11 2 0
ATTRIBUTES 02ee
BITMAP
ff80
8080
8080
8080
8080
8080
8080
8080
8080
8080
ff80
ENDCHAR
STARTCHAR C000233
ENCODING 155
SWIDTH 734 0
DWIDTH 13 0
BBX 9 11 2 0
ATTRIBUTES 02ee
BITMAP
ff80
8080
8080
8080
8080
8080
8080
8080
8080
8080
ff80
ENDCHAR
STARTCHAR C000234
ENCODING 156
SWIDTH 734 0
DWIDTH 13 0
BBX 9 11 2 0
ATTRIBUTES 02ee
BITMAP
ff80
8080
8080
8080
8080
8080
8080
8080
8080
8080
ff80
ENDCHAR
STARTCHAR C000235
ENCODING 157
SWIDTH 734 0
DWIDTH 13 0
BBX 9 11 2 0
ATTRIBUTES 02ee
BITMAP
ff80
8080
8080
8080
8080
8080
8080
8080
8080
8080
ff80
ENDCHAR
STARTCHAR C000236
ENCODING 158
SWIDTH 734 0
DWIDTH 13 0
BBX 9 11 2 0
ATTRIBUTES 02ee
BITMAP
ff80
8080
8080
8080
8080
8080
8080
8080
8080
8080
ff80
ENDCHAR
STARTCHAR C000237
ENCODING 159
SWIDTH 734 0
DWIDTH 13 0
BBX 9 11 2 0
ATTRIBUTES 02ee
BITMAP
ff80
8080
8080
8080
8080
8080
8080
8080
8080
8080
ff80
ENDCHAR
STARTCHAR nobreakspace
ENCODING 160
SWIDTH 282 0
DWIDTH 5 0
BBX 0 0 0 0
ATTRIBUTES 0117
BITMAP
ENDCHAR
STARTCHAR exclamdown
ENCODING 161
SWIDTH 338 0
DWIDTH 6 0
BBX 2 12 2 -3
ATTRIBUTES 014c
BITMAP
c0
c0
00
c0
c0
c0
c0
c0
c0
c0
c0
c0
ENDCHAR
STARTCHAR cent
ENCODING 162
SWIDTH 564 0
DWIDTH 10 0
BBX 9 17 0 -4
ATTRIBUTES 022c
BITMAP
0200
0200
0200
0200
3e00
6700
c580
c800
c800
c800
5180
7300
3c00
2000
2000
2000
2000
ENDCHAR
STARTCHAR sterling
ENCODING 163
SWIDTH 564 0
DWIDTH 10 0
BBX 9 13 0 0
ATTRIBUTES 022c
BITMAP
0c00
3f00
6100
6100
6000
6000
fc00
3000
2000
2000
6000
fd80
c780
ENDCHAR
STARTCHAR currency
ENCODING 164
SWIDTH 564 0
DWIDTH 10 0
BBX 9 8 0 2
ATTRIBUTES 022c
BITMAP
dd80
7f00
6300
4100
4100
6300
ff80
4100
ENDCHAR
STARTCHAR yen
ENCODING 165
SWIDTH 564 0
DWIDTH 10 0
BBX 10 13 0 0
ATTRIBUTES 022c
BITMAP
c0c0
4080
6180
2300
3300
1e00
1e00
7f80
0c00
7f80
0c00
0c00
0c00
ENDCHAR
STARTCHAR brokenbar
ENCODING 166
SWIDTH 282 0
DWIDTH 5 0
BBX 2 17 1 -4
ATTRIBUTES 0103
BITMAP
c0
c0
c0
c0
c0
c0
c0
00
00
00
c0
c0
c0
c0
c0
c0
c0
ENDCHAR
STARTCHAR section
ENCODING 167
SWIDTH 564 0
DWIDTH 10 0
BBX 9 17 0 -4
ATTRIBUTES 022c
BITMAP
1c00
3600
6300
6300
3000
7c00
ce00
c300
c180
7180
3900
0e00
0700
6100
6300
3f00
1c00
ENDCHAR
STARTCHAR diaeresis
ENCODING 168
SWIDTH 338 0
DWIDTH 6 0
BBX 6 2 0 11
ATTRIBUTES 014c
BITMAP
cc
cc
ENDCHAR
STARTCHAR copyright
ENCODING 169
SWIDTH 734 0
DWIDTH 13 0
BBX 13 13 0 0
ATTRIBUTES 02df
BITMAP
0f80
38e0
6030
4710
c890
9808
9008
9008
d8d0
4890
6730
38e0
0f80
ENDCHAR
STARTCHAR ordfeminine
ENCODING 170
SWIDTH 395 0
DWIDTH 7 0
BBX 6 6 0 7
ATTRIBUTES 0174
BITMAP
78
c8
3c
dc
8c
74
ENDCHAR
STARTCHAR guillemotleft
ENCODING 171
SWIDTH 564 0
DWIDTH 10 0
BBX 8 7 1 1
ATTRIBUTES 022c
BITMAP
32
66
6c
cc
6c
26
32
ENDCHAR
STARTCHAR notsign
ENCODING 172
SWIDTH 564 0
DWIDTH 10 0
BBX 9 5 0 4
ATTRIBUTES 0247
BITMAP
ff80
ff80
0180
0180
0180
ENDCHAR
STARTCHAR hyphen
ENCODING 173
SWIDTH 338 0
DWIDTH 6 0
BBX 5 1 0 4
ATTRIBUTES 014c
BITMAP
f8
ENDCHAR
STARTCHAR registered
ENCODING 174
SWIDTH 734 0
DWIDTH 13 0
BBX 13 12 0 0
ATTRIBUTES 02df
BITMAP
0f80
1060
6030
4f90
8888
8f88
8908
8908
4890
6030
3060
0f80
ENDCHAR
STARTCHAR macron
ENCODING 175
SWIDTH 564 0
DWIDTH 10 0
BBX 10 1 0 14
ATTRIBUTES 0227
BITMAP
ffc0
ENDCHAR
STARTCHAR degree
ENCODING 176
SWIDTH 395 0
DWIDTH 7 0
BBX 5 5 1 8
ATTRIBUTES 018f
BITMAP
00
00
70
88
88
ENDCHAR
STARTCHAR plusminus
ENCODING 177
SWIDTH 564 0
DWIDTH 10 0
BBX 9 11 0 0
ATTRIBUTES 0223
BITMAP
8800
0800
0800
0800
0800
ff80
0800
0800
0800
0800
0000
ENDCHAR
STARTCHAR twosuperior
ENCODING 178
SWIDTH 338 0
DWIDTH 6 0
BBX 6 7 0 6
ATTRIBUTES 014c
BITMAP
fc
80
78
4c
0c
18
30
ENDCHAR
STARTCHAR threesuperior
ENCODING 179
SWIDTH 338 0
DWIDTH 6 0
BBX 6 7 0 6
ATTRIBUTES 014c
BITMAP
40
fc
78
cc
08
38
0c
ENDCHAR
STARTCHAR acute
ENCODING 180
SWIDTH 338 0
DWIDTH 6 0
BBX 4 3 1 10
ATTRIBUTES 014c
BITMAP
c0
70
70
ENDCHAR
STARTCHAR mu
ENCODING 181
SWIDTH 564 0
DWIDTH 10 0
BBX 9 13 1 -4
ATTRIBUTES 0240
BITMAP
6080
c180
c180
c180
c180
c180
c180
c180
e380
dd80
c000
c000
c000
ENDCHAR
STARTCHAR paragraph
ENCODING 182
SWIDTH 508 0
DWIDTH 9 0
BBX 9 17 0 -4
ATTRIBUTES 0218
BITMAP
c000
1f80
7f80
f900
f900
f900
f900
7900
0900
0900
0900
0900
0900
0900
0900
0900
0900
ENDCHAR
STARTCHAR periodcentered
ENCODING 183
SWIDTH 282 0
DWIDTH 5 0
BBX 2 2 1 5
ATTRIBUTES 0117
BITMAP
00
00
ENDCHAR
STARTCHAR cedilla
ENCODING 184
SWIDTH 338 0
DWIDTH 6 0
BBX 4 4 1 -4
ATTRIBUTES 014c
BITMAP
c0
c0
40
30
ENDCHAR
STARTCHAR onesuperior
ENCODING 185
SWIDTH 508 0
DWIDTH 9 0
BBX 9 9 0 0
ATTRIBUTES 01f7
BITMAP
7080
ff80
8080
8080
8080
8080
8080
8080
8080
ENDCHAR
STARTCHAR masculine
ENCODING 186
SWIDTH 338 0
DWIDTH 6 0
BBX 5 6 1 7
ATTRIBUTES 016b
BITMAP
f8
80
70
88
88
88
ENDCHAR
STARTCHAR guillemotright
ENCODING 187
SWIDTH 564 0
DWIDTH 10 0
BBX 8 7 1 1
ATTRIBUTES 022c
BITMAP
88
70
4c
66
36
33
36
ENDCHAR
STARTCHAR onequarter
ENCODING 188
SWIDTH 847 0
DWIDTH 15 0
BBX 14 13 0 0
ATTRIBUTES 0343
BITMAP
644c
2010
e030
a060
2040
2080
2180
2300
0218
0438
0c28
1848
10fc
ENDCHAR
STARTCHAR onehalf
ENCODING 189
SWIDTH 847 0
DWIDTH 15 0
BBX 14 13 0 0
ATTRIBUTES 0343
BITMAP
2008
2010
e020
a060
20c0
2080
2100
2300
0678
044c
080c
1818
3020
ENDCHAR
STARTCHAR threequarters
ENCODING 190
SWIDTH 847 0
DWIDTH 15 0
BBX 14 13 0 0
ATTRIBUTES 0343
BITMAP
207c
7010
d830
1820
3040
08c0
c980
7100
0218
0618
0428
0848
187c
ENDCHAR
STARTCHAR questiondown
ENCODING 191
SWIDTH 621 0
DWIDTH 11 0
BBX 9 13 1 -4
ATTRIBUTES 0263
BITMAP
1000
0800
0800
0000
0800
0800
1800
3000
6000
c000
c180
c380
7f00
ENDCHAR
STARTCHAR Agrave
ENCODING 192
SWIDTH 677 0
DWIDTH 12 0
BBX 12 16 0 0
ATTRIBUTES 029b
BITMAP
1c00
0c00
0600
0000
0600
0e00
0b00
0900
1980
1980
3080
30c0
3fc0
6060
6060
4060
ENDCHAR
STARTCHAR Aacute
ENCODING 193
SWIDTH 677 0
DWIDTH 12 0
BBX 12 16 0 0
ATTRIBUTES 029b
BITMAP
c030
0300
0600
0000
0600
0e00
0b00
0900
1980
1980
3080
30c0
3fc0
6060
6060
4060
ENDCHAR
STARTCHAR Acircumflex
ENCODING 194
SWIDTH 677 0
DWIDTH 12 0
BBX 12 16 0 0
ATTRIBUTES 029b
BITMAP
c030
0600
0900
0000
0600
0e00
0b00
0900
1980
1980
3080
30c0
3fc0
6060
6060
4060
ENDCHAR
STARTCHAR Atilde
ENCODING 195
SWIDTH 677 0
DWIDTH 12 0
BBX 12 15 0 0
ATTRIBUTES 029b
BITMAP
c030
1f80
1100
0600
0e00
0f00
0b00
1900
1980
1080
30c0
3fc0
6060
6060
4060
ENDCHAR
STARTCHAR Adiaeresis
ENCODING 196
SWIDTH 677 0
DWIDTH 12 0
BBX 12 15 0 0
ATTRIBUTES 029b
BITMAP
c030
1980
0000
0600
0e00
0f00
0900
1980
1880
3080
30c0
3fc0
6060
6060
4060
ENDCHAR
STARTCHAR Aring
ENCODING 197
SWIDTH 677 0
DWIDTH 12 0
BBX 12 15 0 0
ATTRIBUTES 029b
BITMAP
c030
0e00
0a00
0600
0e00
0f00
0b00
1900
1980
1080
30c0
3fc0
6060
6060
4060
ENDCHAR
STARTCHAR AE
ENCODING 198
SWIDTH 1016 0
DWIDTH 18 0
BBX 17 12 0 0
ATTRIBUTES 03e8
BITMAP
c03000
ff8000
400000
400000
400000
400000
7f0000
400000
c00000
400000
400000
7f8080
ENDCHAR
STARTCHAR Ccedilla
ENCODING 199
SWIDTH 734 0
DWIDTH 13 0
BBX 11 17 1 -4
ATTRIBUTES 02d4
BITMAP
7f80
0f00
3f80
60c0
6060
c000
c000
c000
c000
c000
4060
60c0
39c0
0f00
0400
0600
0e00
ENDCHAR
STARTCHAR Egrave
ENCODING 200
SWIDTH 677 0
DWIDTH 12 0
BBX 10 16 1 0
ATTRIBUTES 029b
BITMAP
1800
1800
0c00
0000
ffc0
ffc0
c000
c000
c000
c000
ff80
c000
c000
c000
c000
ffc0
ENDCHAR
STARTCHAR Eacute
ENCODING 201
SWIDTH 677 0
DWIDTH 12 0
BBX 10 16 1 0
ATTRIBUTES 029b
BITMAP
ffc0
0600
0c00
0000
ffc0
ffc0
c000
c000
c000
c000
ff80
c000
c000
c000
c000
ffc0
ENDCHAR
STARTCHAR Ecircumflex
ENCODING 202
SWIDTH 677 0
DWIDTH 12 0
BBX 10 16 1 0
ATTRIBUTES 029b
BITMAP
ffc0
0c00
1200
0000
ffc0
ffc0
c000
c000
c000
c000
ff80
c000
c000
c000
c000
ffc0
ENDCHAR
STARTCHAR Ediaeresis
ENCODING 203
SWIDTH 677 0
DWIDTH 12 0
BBX 10 15 1 0
ATTRIBUTES 029b
BITMAP
ffc0
3300
0000
ffc0
ffc0
c000
c000
c000
c000
ff80
c000
c000
c000
c000
ffc0
ENDCHAR
STARTCHAR Igrave
ENCODING 204
SWIDTH 282 0
DWIDTH 5 0
BBX 4 16 0 0
ATTRIBUTES 0117
BITMAP
f0
c0
e0
30
00
70
70
70
70
70
70
70
70
70
70
70
ENDCHAR
STARTCHAR Iacute
ENCODING 205
SWIDTH 282 0
DWIDTH 5 0
BBX 4 16 0 0
ATTRIBUTES 0117
BITMAP
70
70
70
c0
00
60
60
60
60
60
60
60
60
60
60
60
ENDCHAR
STARTCHAR Icircumflex
ENCODING 206
SWIDTH 282 0
DWIDTH 5 0
BBX 6 16 -1 0
ATTRIBUTES 0117
BITMAP
60
60
30
78
cc
30
30
30
30
30
30
30
30
30
30
30
ENDCHAR
STARTCHAR Idiaeresis
ENCODING 207
SWIDTH 282 0
DWIDTH 5 0
BBX 6 15 -1 0
ATTRIBUTES 0117
BITMAP
30
30
cc
00
30
30
30
30
30
30
30
30
30
30
30
ENDCHAR
STARTCHAR ETH
ENCODING 208
SWIDTH 734 0
DWIDTH 13 0
BBX 12 12 0 0
ATTRIBUTES 02d4
BITMAP
3030
7fc0
60c0
6060
6020
6030
fc30
6030
6020
6060
60e0
7fc0
ENDCHAR
STARTCHAR Ntilde
ENCODING 209
SWIDTH 734 0
DWIDTH 13 0
BBX 10 15 1 0
ATTRIBUTES 02d4
BITMAP
7f00
1f00
3200
c0c0
c0c0
e0c0
f0c0
d0c0
d8c0
ccc0
c6c0
c6c0
c3c0
c1c0
c1c0
ENDCHAR
STARTCHAR Ograve
ENCODING 210
SWIDTH 790 0
DWIDTH 14 0
BBX 12 16 1 0
ATTRIBUTES 030b
BITMAP
c0c0
0c00
0600
0000
0f00
3fc0
6060
6060
c030
c030
c030
c030
c030
4020
6060
39c0
ENDCHAR
STARTCHAR Oacute
ENCODING 211
SWIDTH 790 0
DWIDTH 14 0
BBX 12 16 1 0
ATTRIBUTES 030b
BITMAP
0f00
0300
0600
0000
0f00
3fc0
6060
6060
c030
c030
c030
c030
c030
4020
6060
39c0
ENDCHAR
STARTCHAR Ocircumflex
ENCODING 212
SWIDTH 790 0
DWIDTH 14 0
BBX 12 16 1 0
ATTRIBUTES 030b
BITMAP
0f00
0600
0900
0000
0f00
3fc0
6060
6060
c030
c030
c030
c030
c030
4020
6060
39c0
ENDCHAR
STARTCHAR Otilde
ENCODING 213
SWIDTH 790 0
DWIDTH 14 0
BBX 12 15 1 0
ATTRIBUTES 030b
BITMAP
0f00
1f00
0000
0f00
3fc0
6060
6060
c030
c030
c030
c030
c030
4020
6060
39c0
ENDCHAR
STARTCHAR Odiaeresis
ENCODING 214
SWIDTH 790 0
DWIDTH 14 0
BBX 12 15 1 0
ATTRIBUTES 030b
BITMAP
0f00
1980
0000
1f00
3fc0
6060
4020
c030
c030
c030
c030
c030
4020
6060
39c0
ENDCHAR
STARTCHAR multiply
ENCODING 215
SWIDTH 564 0
DWIDTH 10 0
BBX 8 8 1 2
ATTRIBUTES 0247
BITMAP
0f
00
42
e7
3c
18
3c
66
ENDCHAR
STARTCHAR Ooblique
ENCODING 216
SWIDTH 790 0
DWIDTH 14 0
BBX 13 14 0 -1
ATTRIBUTES 030b
BITMAP
c340
0788
3ff0
7060
6070
40b0
c118
c218
c618
cc10
7830
7030
78e0
cf80
ENDCHAR
STARTCHAR Ugrave
ENCODING 217
SWIDTH 734 0
DWIDTH 13 0
BBX 10 16 1 0
ATTRIBUTES 02d4
BITMAP
4000
1800
0800
0400
c0c0
c0c0
c0c0
c0c0
c0c0
c0c0
c0c0
c0c0
c0c0
c0c0
c0c0
7180
ENDCHAR
STARTCHAR Uacute
ENCODING 218
SWIDTH 734 0
DWIDTH 13 0
BBX 10 16 1 0
ATTRIBUTES 02d4
BITMAP
1e00
0600
0c00
0800
c0c0
c0c0
c0c0
c0c0
c0c0
c0c0
c0c0
c0c0
c0c0
c0c0
c0c0
7180
ENDCHAR
STARTCHAR Ucircumflex
ENCODING 219
SWIDTH 734 0
DWIDTH 13 0
BBX 10 16 1 0
ATTRIBUTES 02d4
BITMAP
1e00
0c00
1e00
3300
c0c0
c0c0
c0c0
c0c0
c0c0
c0c0
c0c0
c0c0
c0c0
c0c0
c0c0
7180
ENDCHAR
STARTCHAR Udiaeresis
ENCODING 220
SWIDTH 734 0
DWIDTH 13 0
BBX 11 15 1 0
ATTRIBUTES 02d4
BITMAP
1e00
3300
3300
c060
c060
c060
c060
c060
c060
c060
c060
4040
4040
60c0
3180
ENDCHAR
STARTCHAR Yacute
ENCODING 221
SWIDTH 677 0
DWIDTH 12 0
BBX 12 16 0 0
ATTRIBUTES 029b
BITMAP
1f00
0300
0600
0400
c030
6060
7040
30c0
1980
0d00
0f00
0600
0600
0600
0600
0600
ENDCHAR
STARTCHAR THORN
ENCODING 222
SWIDTH 677 0
DWIDTH 12 0
BBX 10 13 1 0
ATTRIBUTES 029b
BITMAP
0600
c000
c000
c000
ff00
c180
c0c0
c0c0
c0c0
c180
ff80
c000
c000
ENDCHAR
STARTCHAR ssharp
ENCODING 223
SWIDTH 621 0
DWIDTH 11 0
BBX 9 13 1 0
ATTRIBUTES 0263
BITMAP
c000
3800
6c00
c600
c600
c400
cc00
cc00
ce00
c300
c180
c180
d900
ENDCHAR
STARTCHAR agrave
ENCODING 224
SWIDTH 564 0
DWIDTH 10 0
BBX 9 13 0 0
ATTRIBUTES 022c
BITMAP
ce00
3000
1800
0800
0000
3e00
6700
4100
0300
7d00
c100
c180
c380
ENDCHAR
STARTCHAR aacute
ENCODING 225
SWIDTH 564 0
DWIDTH 10 0
BBX 9 13 0 0
ATTRIBUTES 022c
BITMAP
3d80
0600
0c00
0800
0000
3e00
6700
4100
0300
7d00
c100
c180
c380
ENDCHAR
STARTCHAR acircumflex
ENCODING 226
SWIDTH 564 0
DWIDTH 10 0
BBX 9 13 0 0
ATTRIBUTES 022c
BITMAP
3d80
1800
1c00
3600
0000
3e00
6700
4100
0300
7d00
c100
c180
c380
ENDCHAR
STARTCHAR atilde
ENCODING 227
SWIDTH 564 0
DWIDTH 10 0
BBX 9 13 0 0
ATTRIBUTES 022c
BITMAP
3d80
1300
3a00
2e00
0000
3e00
6700
4100
0300
7d00
c100
c180
c380
ENDCHAR
STARTCHAR adiaeresis
ENCODING 228
SWIDTH 564 0
DWIDTH 10 0
BBX 8 13 1 0
ATTRIBUTES 022c
BITMAP
3d
80
66
66
66
00
3c
e6
c3
03
7f
c3
83
ENDCHAR
STARTCHAR aring
ENCODING 229
SWIDTH 564 0
DWIDTH 10 0
BBX 9 13 0 0
ATTRIBUTES 022c
BITMAP
c700
1c00
1400
1c00
0000
3e00
6700
4100
0300
7d00
c100
c180
c380
ENDCHAR
STARTCHAR ae
ENCODING 230
SWIDTH 903 0
DWIDTH 16 0
BBX 15 9 0 0
ATTRIBUTES 0378
BITMAP
3d80
3ef8
63cc
c386
0306
3ffe
e300
c306
c78c
ENDCHAR
STARTCHAR ccedilla
ENCODING 231
SWIDTH 508 0
DWIDTH 9 0
BBX 9 12 0 -3
ATTRIBUTES 01f4
BITMAP
7c80
3f00
6300
c180
c000
c000
c000
c180
7300
3c00
1800
0400
ENDCHAR
STARTCHAR egrave
ENCODING 232
SWIDTH 564 0
DWIDTH 10 0
BBX 9 13 0 0
ATTRIBUTES 022c
BITMAP
3c00
3000
1800
0800
0000
3e00
6300
c180
c180
ff80
c000
c180
6300
ENDCHAR
STARTCHAR eacute
ENCODING 233
SWIDTH 564 0
DWIDTH 10 0
BBX 9 13 0 0
ATTRIBUTES 022c
BITMAP
3e00
0600
0c00
0800
0000
3e00
6300
c180
c180
ff80
c000
c180
6300
ENDCHAR
STARTCHAR ecircumflex
ENCODING 234
SWIDTH 564 0
DWIDTH 10 0
BBX 9 13 0 0
ATTRIBUTES 022c
BITMAP
3e00
1800
1c00
3600
0000
3e00
6300
c180
c180
ff80
c000
c180
6300
ENDCHAR
STARTCHAR ediaeresis
ENCODING 235
SWIDTH 564 0
DWIDTH 10 0
BBX 8 13 1 0
ATTRIBUTES 022c
BITMAP
3e
00
66
66
66
00
3c
66
c3
c3
ff
80
c3
ENDCHAR
STARTCHAR igrave
ENCODING 236
SWIDTH 282 0
DWIDTH 5 0
BBX 4 13 0 0
ATTRIBUTES 0117
BITMAP
60
30
e0
60
30
00
30
30
30
30
30
30
30
ENDCHAR
STARTCHAR iacute
ENCODING 237
SWIDTH 282 0
DWIDTH 5 0
BBX 4 13 0 0
ATTRIBUTES 0117
BITMAP
30
30
70
60
c0
00
c0
c0
c0
c0
c0
c0
c0
ENDCHAR
STARTCHAR icircumflex
ENCODING 238
SWIDTH 282 0
DWIDTH 5 0
BBX 6 13 -1 0
ATTRIBUTES 0117
BITMAP
c0
c0
30
78
cc
00
30
30
30
30
30
30
30
ENDCHAR
STARTCHAR idiaeresis
ENCODING 239
SWIDTH 282 0
DWIDTH 5 0
BBX 6 13 0 0
ATTRIBUTES 0117
BITMAP
30
30
cc
cc
00
00
30
30
30
30
30
30
30
ENDCHAR
STARTCHAR eth
ENCODING 240
SWIDTH 564 0
DWIDTH 10 0
BBX 9 13 0 0
ATTRIBUTES 022c
BITMAP
3000
3100
0e00
3c00
2200
3f00
6700
c180
c180
c180
c180
4180
6700
ENDCHAR
STARTCHAR ntilde
ENCODING 241
SWIDTH 564 0
DWIDTH 10 0
BBX 9 13 0 0
ATTRIBUTES 022c
BITMAP
3e00
0900
3d00
2e00
0000
de00
f300
c100
c180
c180
c180
c180
c180
ENDCHAR
STARTCHAR ograve
ENCODING 242
SWIDTH 564 0
DWIDTH 10 0
BBX 9 13 0 0
ATTRIBUTES 022c
BITMAP
c180
3000
1800
0800
0000
1e00
7700
c180
c180
c180
c180
c180
6300
ENDCHAR
STARTCHAR oacute
ENCODING 243
SWIDTH 564 0
DWIDTH 10 0
BBX 9 13 0 0
ATTRIBUTES 022c
BITMAP
3e00
0600
0c00
0800
0000
1e00
7700
c180
c180
c180
c180
c180
6300
ENDCHAR
STARTCHAR ocircumflex
ENCODING 244
SWIDTH 564 0
DWIDTH 10 0
BBX 9 13 0 0
ATTRIBUTES 022c
BITMAP
3e00
1800
1c00
3600
0000
1e00
7700
c180
c180
c180
c180
c180
6300
ENDCHAR
STARTCHAR otilde
ENCODING 245
SWIDTH 564 0
DWIDTH 10 0
BBX 9 13 0 0
ATTRIBUTES 022c
BITMAP
3e00
1200
3a00
2e00
0000
1e00
7700
c180
c180
c180
c180
c180
6300
ENDCHAR
STARTCHAR odiaeresis
ENCODING 246
SWIDTH 564 0
DWIDTH 10 0
BBX 8 13 1 0
ATTRIBUTES 022c
BITMAP
3e
00
66
66
66
00
3c
6e
c3
c3
81
c3
c3
ENDCHAR
STARTCHAR division
ENCODING 247
SWIDTH 564 0
DWIDTH 10 0
BBX 9 6 0 3
ATTRIBUTES 0223
BITMAP
6600
0800
0000
ff80
0000
0800
ENDCHAR
STARTCHAR oslash
ENCODING 248
SWIDTH 621 0
DWIDTH 11 0
BBX 9 10 1 -1
ATTRIBUTES 0263
BITMAP
0800
3f80
6300
c780
c580
c980
d180
f180
6700
7c00
ENDCHAR
STARTCHAR ugrave
ENCODING 249
SWIDTH 564 0
DWIDTH 10 0
BBX 9 13 0 0
ATTRIBUTES 022c
BITMAP
4000
1800
0800
0c00
0000
c180
c180
c180
c180
c180
c180
4180
6380
ENDCHAR
STARTCHAR uacute
ENCODING 250
SWIDTH 564 0
DWIDTH 10 0
BBX 9 13 0 0
ATTRIBUTES 022c
BITMAP
3d80
0600
0c00
0800
0000
c180
c180
c180
c180
c180
c180
4180
6380
ENDCHAR
STARTCHAR ucircumflex
ENCODING 251
SWIDTH 564 0
DWIDTH 10 0
BBX 9 13 0 0
ATTRIBUTES 022c
BITMAP
3d80
1c00
1c00
3600
0000
c180
c180
c180
c180
c180
c180
4180
6380
ENDCHAR
STARTCHAR udiaeresis
ENCODING 252
SWIDTH 564 0
DWIDTH 10 0
BBX 9 13 0 0
ATTRIBUTES 022c
BITMAP
3d80
3600
3600
0000
0000
c180
c180
c180
c180
c180
c180
4180
6380
ENDCHAR
STARTCHAR yacute
ENCODING 253
SWIDTH 508 0
DWIDTH 9 0
BBX 9 17 0 -4
ATTRIBUTES 01f4
BITMAP
3d80
0600
0c00
0800
0000
c180
4100
6300
6300
3600
3600
1400
1c00
0c00
0800
1800
7000
ENDCHAR
STARTCHAR thorn
ENCODING 254
SWIDTH 564 0
DWIDTH 10 0
BBX 8 17 1 -4
ATTRIBUTES 022c
BITMAP
60
00
c0
c0
c0
c0
fc
e6
c3
c3
83
c3
c3
e6
fc
c0
c0
ENDCHAR
STARTCHAR ydiaeresis
ENCODING 255
SWIDTH 508 0
DWIDTH 9 0
BBX 9 17 0 -4
ATTRIBUTES 01f4
BITMAP
c080
3300
3300
0000
0000
4180
6100
6100
3200
3200
1200
1c00
1c00
0c00
0800
1800
7000
ENDCHAR
ENDFONT
